<svg width="150" height="50" viewBox="0 0 1148 395" fill="none" xmlns="http://www.w3.org/2000/svg">
<path d="M1145.49 280.273L1124.71 281.552C1124.36 279.776 1123.59 278.178 1122.42 276.758C1121.25 275.302 1119.71 274.148 1117.79 273.295C1115.91 272.407 1113.65 271.964 1111.02 271.964C1107.51 271.964 1104.54 272.709 1102.13 274.201C1099.71 275.657 1098.51 277.61 1098.51 280.06C1098.51 282.013 1099.29 283.665 1100.85 285.014C1102.41 286.363 1105.09 287.447 1108.89 288.263L1123.7 291.246C1131.66 292.88 1137.59 295.508 1141.49 299.13C1145.4 302.752 1147.35 307.51 1147.35 313.405C1147.35 318.768 1145.77 323.473 1142.61 327.521C1139.49 331.569 1135.19 334.73 1129.72 337.003C1124.29 339.24 1118.02 340.358 1110.92 340.358C1100.09 340.358 1091.46 338.104 1085.03 333.594C1078.64 329.048 1074.89 322.869 1073.79 315.057L1096.11 313.885C1096.78 317.187 1098.42 319.709 1101.01 321.449C1103.6 323.153 1106.92 324.005 1110.97 324.005C1114.95 324.005 1118.14 323.242 1120.56 321.715C1123.01 320.153 1124.25 318.146 1124.29 315.696C1124.25 313.636 1123.38 311.949 1121.68 310.635C1119.97 309.286 1117.34 308.256 1113.79 307.546L1099.62 304.723C1091.63 303.125 1085.69 300.355 1081.78 296.413C1077.91 292.471 1075.97 287.447 1075.97 281.339C1075.97 276.083 1077.39 271.555 1080.23 267.755C1083.11 263.956 1087.14 261.026 1092.33 258.966C1097.55 256.907 1103.65 255.877 1110.65 255.877C1120.98 255.877 1129.12 258.061 1135.05 262.429C1141.01 266.797 1144.49 272.745 1145.49 280.273Z" fill="#FE851B"/>
<path d="M1036.57 303.924V256.942H1059.26V338.76H1037.47V323.899H1036.62C1034.78 328.693 1031.7 332.546 1027.41 335.458C1023.15 338.37 1017.94 339.826 1011.8 339.826C1006.33 339.826 1001.52 338.583 997.365 336.097C993.21 333.611 989.96 330.078 987.617 325.497C985.308 320.916 984.137 315.429 984.101 309.037V256.942H1006.79V304.989C1006.83 309.819 1008.12 313.636 1010.68 316.442C1013.24 319.247 1016.67 320.65 1020.96 320.65C1023.7 320.65 1026.25 320.028 1028.63 318.785C1031.01 317.507 1032.93 315.625 1034.39 313.139C1035.88 310.653 1036.6 307.581 1036.57 303.924Z" fill="#FE851B"/>
<path d="M929.076 340.358C920.802 340.358 913.647 338.601 907.61 335.085C901.608 331.534 896.974 326.598 893.707 320.277C890.44 313.92 888.806 306.552 888.806 298.171C888.806 289.719 890.44 282.333 893.707 276.012C896.974 269.655 901.608 264.719 907.61 261.204C913.647 257.653 920.802 255.877 929.076 255.877C937.35 255.877 944.488 257.653 950.49 261.204C956.527 264.719 961.179 269.655 964.446 276.012C967.713 282.333 969.346 289.719 969.346 298.171C969.346 306.552 967.713 313.92 964.446 320.277C961.179 326.598 956.527 331.534 950.49 335.085C944.488 338.601 937.35 340.358 929.076 340.358ZM929.183 322.78C932.947 322.78 936.09 321.715 938.611 319.584C941.132 317.418 943.032 314.471 944.311 310.742C945.625 307.013 946.282 302.77 946.282 298.011C946.282 293.253 945.625 289.009 944.311 285.28C943.032 281.552 941.132 278.604 938.611 276.438C936.09 274.272 932.947 273.189 929.183 273.189C925.383 273.189 922.187 274.272 919.595 276.438C917.038 278.604 915.103 281.552 913.789 285.28C912.51 289.009 911.871 293.253 911.871 298.011C911.871 302.77 912.51 307.013 913.789 310.742C915.103 314.471 917.038 317.418 919.595 319.584C922.187 321.715 925.383 322.78 929.183 322.78Z" fill="#FE851B"/>
<path d="M851.24 338.76V256.942H873.931V338.76H851.24ZM862.639 246.395C859.265 246.395 856.371 245.277 853.956 243.04C851.577 240.767 850.387 238.05 850.387 234.89C850.387 231.765 851.577 229.084 853.956 226.846C856.371 224.574 859.265 223.437 862.639 223.437C866.012 223.437 868.889 224.574 871.268 226.846C873.683 229.084 874.89 231.765 874.89 234.89C874.89 238.05 873.683 240.767 871.268 243.04C868.889 245.277 866.012 246.395 862.639 246.395Z" fill="#FE851B"/>
<path d="M800.17 340.358C791.789 340.358 784.581 338.583 778.544 335.032C772.542 331.445 767.926 326.474 764.694 320.117C761.498 313.76 759.9 306.445 759.9 298.171C759.9 289.79 761.516 282.439 764.747 276.118C768.014 269.762 772.649 264.808 778.65 261.257C784.652 257.67 791.789 255.877 800.064 255.877C807.201 255.877 813.451 257.173 818.814 259.765C824.176 262.358 828.419 265.998 831.544 270.685C834.669 275.373 836.392 280.877 836.711 287.198H815.298C814.694 283.114 813.096 279.829 810.504 277.344C807.947 274.822 804.591 273.562 800.436 273.562C796.921 273.562 793.849 274.52 791.221 276.438C788.629 278.32 786.605 281.072 785.149 284.694C783.693 288.317 782.965 292.702 782.965 297.851C782.965 303.072 783.675 307.51 785.095 311.168C786.551 314.826 788.593 317.613 791.221 319.531C793.849 321.449 796.921 322.407 800.436 322.407C803.029 322.407 805.355 321.875 807.414 320.809C809.51 319.744 811.232 318.199 812.581 316.175C813.966 314.116 814.872 311.648 815.298 308.771H836.711C836.356 315.021 834.652 320.525 831.598 325.284C828.579 330.007 824.407 333.7 819.08 336.363C813.753 339.027 807.45 340.358 800.17 340.358Z" fill="#FE851B"/>
<path d="M722.333 338.76V256.942H745.025V338.76H722.333ZM733.733 246.395C730.359 246.395 727.465 245.277 725.05 243.04C722.671 240.767 721.481 238.05 721.481 234.89C721.481 231.765 722.671 229.084 725.05 226.846C727.465 224.574 730.359 223.437 733.733 223.437C737.106 223.437 739.983 224.574 742.362 226.846C744.777 229.084 745.984 231.765 745.984 234.89C745.984 238.05 744.777 240.767 742.362 243.04C739.983 245.277 737.106 246.395 733.733 246.395Z" fill="#FE851B"/>
<path d="M704.156 229.67V338.76H681.464V229.67H704.156Z" fill="#FE851B"/>
<path d="M629.103 340.358C620.687 340.358 613.442 338.654 607.37 335.245C601.333 331.8 596.681 326.935 593.414 320.65C590.147 314.329 588.513 306.854 588.513 298.224C588.513 289.808 590.147 282.422 593.414 276.065C596.681 269.709 601.28 264.755 607.21 261.204C613.176 257.653 620.172 255.877 628.197 255.877C633.595 255.877 638.62 256.747 643.272 258.487C647.959 260.192 652.043 262.766 655.523 266.211C659.039 269.655 661.773 273.988 663.727 279.208C665.68 284.393 666.656 290.465 666.656 297.425V303.657H597.569V289.595H645.296C645.296 286.328 644.586 283.434 643.165 280.912C641.745 278.391 639.774 276.42 637.253 275C634.767 273.544 631.873 272.816 628.57 272.816C625.126 272.816 622.072 273.615 619.408 275.213C616.78 276.775 614.721 278.888 613.229 281.552C611.738 284.18 610.974 287.109 610.939 290.341V303.711C610.939 307.759 611.685 311.257 613.176 314.204C614.703 317.152 616.851 319.425 619.621 321.023C622.391 322.621 625.676 323.42 629.476 323.42C631.997 323.42 634.305 323.064 636.401 322.354C638.496 321.644 640.289 320.579 641.78 319.158C643.272 317.738 644.408 315.998 645.19 313.938L666.177 315.323C665.111 320.366 662.927 324.769 659.625 328.533C656.358 332.262 652.132 335.174 646.947 337.269C641.798 339.329 635.85 340.358 629.103 340.358Z" fill="#FE851B"/>
<path d="M521.783 338.76H483.111V229.67H522.103C533.076 229.67 542.522 231.854 550.441 236.221C558.36 240.554 564.45 246.786 568.711 254.918C573.008 263.05 575.157 272.78 575.157 284.108C575.157 295.472 573.008 305.238 568.711 313.405C564.45 321.573 558.324 327.841 550.334 332.209C542.38 336.577 532.863 338.76 521.783 338.76ZM506.176 318.998H520.824C527.642 318.998 533.378 317.791 538.03 315.376C542.717 312.926 546.233 309.144 548.576 304.03C550.956 298.881 552.145 292.241 552.145 284.108C552.145 276.047 550.956 269.46 548.576 264.346C546.233 259.233 542.735 255.469 538.083 253.054C533.431 250.639 527.696 249.432 520.878 249.432H506.176V318.998Z" fill="#FE851B"/>
<path d="M774.708 158.358C766.292 158.358 759.048 156.654 752.975 153.245C746.939 149.8 742.287 144.935 739.019 138.65C735.752 132.329 734.119 124.854 734.119 116.224C734.119 107.808 735.752 100.422 739.019 94.0652C742.287 87.7086 746.885 82.7548 752.816 79.2037C758.782 75.6525 765.777 73.877 773.803 73.877C779.201 73.877 784.225 74.747 788.877 76.487C793.565 78.1916 797.649 80.7662 801.129 84.2108C804.644 87.6554 807.379 91.9877 809.332 97.2079C811.285 102.393 812.262 108.465 812.262 115.425V121.657H743.174V107.595H790.902C790.902 104.328 790.191 101.434 788.771 98.9125C787.35 96.3912 785.38 94.4203 782.858 92.9998C780.372 91.5439 777.478 90.8159 774.176 90.8159C770.731 90.8159 767.677 91.6149 765.014 93.2129C762.386 94.7754 760.326 96.8883 758.835 99.5517C757.343 102.18 756.58 105.109 756.544 108.341V121.711C756.544 125.759 757.29 129.257 758.782 132.204C760.309 135.152 762.457 137.425 765.227 139.023C767.997 140.621 771.282 141.42 775.081 141.42C777.603 141.42 779.911 141.064 782.006 140.354C784.101 139.644 785.894 138.579 787.386 137.158C788.877 135.738 790.014 133.998 790.795 131.938L811.782 133.323C810.717 138.366 808.533 142.769 805.23 146.533C801.963 150.262 797.738 153.174 792.553 155.269C787.404 157.329 781.456 158.358 774.708 158.358Z" fill="#FE851B"/>
<path d="M726.488 74.9423V91.9877H675.991V74.9423H726.488ZM687.55 156.76V69.0296C687.55 63.0992 688.704 58.1809 691.013 54.2747C693.356 50.3684 696.552 47.4387 700.601 45.4856C704.649 43.5325 709.248 42.5559 714.397 42.5559C717.877 42.5559 721.055 42.8222 723.932 43.3549C726.843 43.8876 729.01 44.367 730.43 44.7931L726.382 61.8386C725.494 61.5545 724.393 61.2882 723.079 61.0396C721.801 60.791 720.487 60.6667 719.138 60.6667C715.799 60.6667 713.473 61.448 712.16 63.0105C710.846 64.5374 710.189 66.6859 710.189 69.4558V156.76H687.55Z" fill="#FE851B"/>
<path d="M618.809 158.305C613.589 158.305 608.937 157.4 604.853 155.589C600.769 153.742 597.538 151.025 595.158 147.439C592.815 143.817 591.643 139.307 591.643 133.909C591.643 129.363 592.477 125.546 594.146 122.456C595.815 119.367 598.088 116.881 600.965 114.999C603.841 113.117 607.108 111.697 610.766 110.738C614.459 109.779 618.33 109.104 622.378 108.714C627.136 108.216 630.972 107.755 633.884 107.329C636.796 106.867 638.908 106.192 640.222 105.305C641.536 104.417 642.193 103.103 642.193 101.363V101.043C642.193 97.6696 641.128 95.0595 638.997 93.2129C636.902 91.3663 633.919 90.443 630.048 90.443C625.965 90.443 622.715 91.3485 620.3 93.1596C617.886 94.9352 616.288 97.1724 615.506 99.8713L594.519 98.1667C595.585 93.1951 597.68 88.8983 600.805 85.2761C603.93 81.6184 607.96 78.813 612.896 76.8599C617.868 74.8713 623.621 73.877 630.155 73.877C634.7 73.877 639.05 74.4096 643.205 75.475C647.396 76.5403 651.107 78.1916 654.338 80.4288C657.605 82.666 660.18 85.5424 662.062 89.0581C663.944 92.5382 664.885 96.7108 664.885 101.576V156.76H643.365V145.415H642.726C641.412 147.971 639.654 150.226 637.452 152.18C635.251 154.097 632.605 155.606 629.516 156.707C626.426 157.773 622.857 158.305 618.809 158.305ZM625.308 142.645C628.646 142.645 631.593 141.988 634.15 140.674C636.707 139.324 638.713 137.513 640.169 135.241C641.625 132.968 642.353 130.393 642.353 127.517V118.834C641.643 119.296 640.666 119.722 639.423 120.113C638.216 120.468 636.849 120.805 635.322 121.125C633.795 121.409 632.268 121.675 630.741 121.924C629.214 122.137 627.829 122.332 626.586 122.51C623.923 122.9 621.597 123.522 619.608 124.374C617.619 125.226 616.075 126.381 614.974 127.836C613.873 129.257 613.323 131.032 613.323 133.163C613.323 136.253 614.441 138.614 616.678 140.248C618.951 141.846 621.827 142.645 625.308 142.645Z" fill="#FE851B"/>
<path d="M579.365 85.8621H556.034C555.608 82.8436 554.738 80.1625 553.424 77.8187C552.11 75.4395 550.423 73.4153 548.363 71.7463C546.304 70.0772 543.924 68.7988 541.226 67.9111C538.562 67.0233 535.668 66.5794 532.543 66.5794C526.897 66.5794 521.978 67.9821 517.788 70.7875C513.598 73.5574 510.348 77.6057 508.04 82.9324C505.732 88.2236 504.578 94.6511 504.578 102.215C504.578 109.992 505.732 116.526 508.04 121.817C510.384 127.108 513.651 131.104 517.841 133.802C522.032 136.501 526.879 137.851 532.383 137.851C535.473 137.851 538.331 137.442 540.959 136.626C543.623 135.809 545.984 134.619 548.044 133.057C550.103 131.459 551.808 129.523 553.157 127.251C554.542 124.978 555.501 122.385 556.034 119.474L579.365 119.58C578.761 124.587 577.252 129.417 574.837 134.069C572.458 138.685 569.244 142.822 565.196 146.48C561.183 150.102 556.389 152.979 550.814 155.109C545.274 157.204 539.006 158.252 532.01 158.252C522.28 158.252 513.58 156.05 505.91 151.647C498.275 147.243 492.238 140.869 487.799 132.524C483.395 124.179 481.194 114.076 481.194 102.215C481.194 90.3187 483.431 80.198 487.905 71.8528C492.38 63.5076 498.452 57.1511 506.123 52.7832C513.793 48.3798 522.422 46.1781 532.01 46.1781C538.331 46.1781 544.191 47.0659 549.588 48.8415C555.022 50.617 559.834 53.2094 564.024 56.6184C568.214 59.992 571.623 64.1291 574.251 69.0297C576.914 73.9302 578.619 79.541 579.365 85.8621Z" fill="#FE851B"/>
<path d="M176.623 274.037C176.623 273.487 177.071 273.042 177.623 273.042H192.951C193.503 273.042 193.951 273.487 193.951 274.037V298.102C193.951 298.652 193.503 299.097 192.951 299.097H177.623C177.071 299.097 176.623 298.652 176.623 298.102V274.037Z" fill="#FE851B"/>
<path d="M270.459 220.26C323.622 220.26 376.785 220.26 431.56 220.26C431.6 263.658 431.6 263.658 431.609 281.785C431.615 294.322 431.622 306.859 431.635 319.396C431.645 328.525 431.652 337.654 431.654 346.783C431.655 351.62 431.658 356.457 431.666 361.293C431.672 365.841 431.675 370.387 431.673 374.935C431.673 376.609 431.675 378.283 431.679 379.956C431.685 382.232 431.684 384.506 431.68 386.782C431.682 388.697 431.682 388.697 431.683 390.651C431.56 393.478 431.56 393.478 430.553 394.473C428.698 394.573 426.84 394.604 424.984 394.606C423.856 394.607 422.727 394.608 421.565 394.61C420.378 394.606 419.19 394.602 417.967 394.598C416.186 394.604 416.186 394.604 414.368 394.61C412.676 394.608 412.676 394.608 410.95 394.606C409.907 394.605 408.865 394.604 407.79 394.602C405.381 394.473 405.381 394.473 404.374 393.478C404.374 386.579 404.374 379.68 404.374 372.572C368.821 372.572 333.268 372.572 296.638 372.572C296.638 379.8 296.638 387.027 296.638 394.473C287.999 394.473 279.36 394.473 270.459 394.473C270.459 336.983 270.459 279.493 270.459 220.26ZM316.775 262.071C316.562 264.929 316.469 267.689 316.472 270.549C316.468 271.393 316.464 272.238 316.459 273.108C316.453 274.899 316.453 276.69 316.457 278.481C316.46 281.21 316.437 283.939 316.412 286.667C316.409 288.408 316.409 290.148 316.41 291.89C316.401 292.702 316.391 293.514 316.382 294.35C316.429 300.148 317.467 304.183 321.393 308.711C325.315 310.557 329.223 310.281 333.511 310.252C334.454 310.255 335.398 310.258 336.369 310.261C338.363 310.263 340.355 310.258 342.349 310.245C345.394 310.229 348.438 310.245 351.483 310.264C353.422 310.262 355.36 310.258 357.298 310.252C358.206 310.259 359.116 310.265 360.051 310.271C364.891 310.217 368.264 310.042 372.154 306.869C374.293 303.695 373.882 298.414 374.115 298.146C374.382 297.838 376.451 297.515 377.265 297.439C384.495 296.545 389.587 295.606 394.305 289.945C398.08 284.769 398.141 279.182 397.326 273.022C395.647 268.168 392.568 264.874 388.264 262.071C384.312 260.188 381.144 259.828 376.774 259.822C375.491 259.816 374.208 259.81 372.886 259.803C371.494 259.807 370.104 259.811 368.712 259.815C367.279 259.814 365.847 259.812 364.414 259.81C361.418 259.807 358.424 259.811 355.428 259.82C351.585 259.832 347.743 259.825 343.9 259.813C340.944 259.806 337.989 259.808 335.035 259.813C333.617 259.815 332.2 259.813 330.782 259.808C328.805 259.803 326.83 259.812 324.853 259.822C323.728 259.824 322.603 259.825 321.444 259.827C318.631 259.814 318.631 259.814 316.775 262.071ZM303.686 318.815C304.681 323.732 305.434 325.225 308.72 328.77C311.692 330.238 314.698 329.904 317.955 329.894C318.698 329.896 319.442 329.898 320.208 329.9C322.672 329.904 325.135 329.901 327.599 329.898C329.307 329.898 331.016 329.899 332.723 329.901C336.305 329.902 339.887 329.9 343.47 329.895C348.067 329.89 352.666 329.893 357.264 329.899C360.791 329.903 364.319 329.901 367.846 329.899C369.542 329.898 371.238 329.899 372.934 329.901C375.301 329.904 377.668 329.9 380.036 329.894C380.74 329.896 381.446 329.898 382.172 329.901C385.845 329.929 389.271 328.77 389.271 328.77L390.381 327.673L391.284 326.779C391.284 326.779 394.305 322.398 394.305 318.815C364.401 318.815 334.496 318.815 303.686 318.815Z" fill="#FE851B"/>
<path d="M235.833 273.042H252.737V299.097H235.833V273.042Z" fill="#FE851B"/>
<path d="M390.931 278.269C390.931 285.627 384.214 291.59 375.931 291.592C371.534 291.592 371.534 289.173 371.534 289.173V268.413C371.534 268.413 371.099 264.947 375.931 264.947C384.215 264.947 390.931 270.911 390.931 278.269Z" fill="#FE851B"/>
<path d="M63.4511 181.715C74.1261 175.904 74.172 176.122 82.6605 168.581C84.0149 167.965 84.0125 167.968 85.1976 168.581C87.1179 169.792 98.1497 184.741 128.596 184.741C159.042 184.741 165.234 168.44 170.256 168.44C175.277 168.44 185.225 184.741 212.874 184.741C240.523 184.741 249.37 168.439 256.52 168.439C263.67 168.439 278.034 184.741 299.67 184.741C321.306 184.741 331.03 175.027 341.761 168.44C343.311 167.488 343.347 167.47 344.817 168.44C352.993 175.929 353.682 176.329 364.623 181.412C364.623 184.095 364.661 211.326 364.661 211.326H260.671V222.231H126.637V341.959L207.677 341.706V222.231H223.006L221.744 341.706H261.658V370.459L62.6237 374.122C62.6237 374.122 63.4511 183.948 63.4511 181.715Z" fill="#FE851B"/>
<path d="M183.162 26.2609H242.23L257.001 126.636L242.23 165.895H183.162C183.162 165.895 164.507 155.5 168.09 125.199C171.673 94.897 183.162 26.2609 183.162 26.2609Z" fill="#FE851B"/>
<path d="M257.696 135.048C257.696 159.789 237.548 179.846 212.696 179.846C187.843 179.846 167.696 159.789 167.696 135.048C167.696 110.307 187.843 90.2505 212.696 90.2505C237.548 90.2505 257.696 110.307 257.696 135.048Z" fill="#FE851B"/>
<path d="M431.183 132.091C431.183 156.832 411.036 176.889 386.183 176.889C361.331 176.889 341.183 156.832 341.183 132.091C341.183 107.35 361.331 87.2935 386.183 87.2935C411.036 87.2935 431.183 107.35 431.183 132.091Z" fill="#FE851B"/>
<path d="M423.634 107.246L342.491 128.168C342.491 128.168 342.64 126.148 340.85 119.02C339.06 111.893 299.822 26.261 299.822 26.261L368.763 26.261L423.634 107.246Z" fill="#FE851B"/>
<path d="M0.158478 132.433C0.158478 157.174 20.3057 177.231 45.1585 177.231C70.0113 177.231 90.1585 157.174 90.1585 132.433C90.1585 107.692 70.0113 87.6356 45.1585 87.6356C20.3057 87.6356 0.158478 107.692 0.158478 132.433Z" fill="#FE851B"/>
<path d="M8.33688 107.588L89.4796 128.51C89.4796 128.51 89.3309 126.49 91.1211 119.362C92.9113 112.235 132.149 26.6031 132.149 26.6031L63.2084 26.6031L8.33688 107.588Z" fill="#FE851B"/>
<path d="M63.3521 0.233459H368.895V13.4161V26.5987H63.3521V0.233459Z" fill="#FE851B"/>
</svg>
