<svg width="50" height="50" viewBox="0 0 433 395" fill="none" xmlns="http://www.w3.org/2000/svg">
<path d="M177.421 273.804C177.421 273.254 177.869 272.808 178.421 272.808H193.748C194.301 272.808 194.748 273.254 194.748 273.804V297.869C194.748 298.418 194.301 298.864 193.748 298.864H178.421C177.869 298.864 177.421 298.418 177.421 297.869V273.804Z" fill="#FE851B"/>
<path d="M271.256 220.027C324.42 220.027 377.583 220.027 432.357 220.027C432.398 263.425 432.398 263.425 432.407 281.552C432.413 294.088 432.42 306.626 432.433 319.163C432.443 328.292 432.45 337.421 432.452 346.549C432.453 351.387 432.456 356.224 432.464 361.06C432.47 365.607 432.473 370.154 432.471 374.701C432.471 376.376 432.473 378.049 432.477 379.723C432.482 381.998 432.481 384.273 432.478 386.549C432.48 388.463 432.48 388.463 432.481 390.417C432.357 393.245 432.357 393.245 431.35 394.24C429.496 394.34 427.638 394.37 425.781 394.372C424.654 394.373 423.525 394.374 422.363 394.376C421.176 394.372 419.988 394.368 418.764 394.365C416.983 394.37 416.983 394.37 415.166 394.376C413.473 394.374 413.473 394.374 411.747 394.372C410.704 394.371 409.662 394.37 408.588 394.368C406.178 394.24 406.178 394.24 405.171 393.245C405.171 386.346 405.171 379.447 405.171 372.339C369.619 372.339 334.066 372.339 297.435 372.339C297.435 379.566 297.435 386.794 297.435 394.24C288.796 394.24 280.157 394.24 271.256 394.24C271.256 336.75 271.256 279.259 271.256 220.027ZM317.573 261.838C317.359 264.696 317.267 267.455 317.27 270.316C317.266 271.16 317.262 272.005 317.257 272.875C317.251 274.666 317.251 276.457 317.255 278.248C317.258 280.976 317.235 283.705 317.209 286.434C317.206 288.175 317.206 289.915 317.207 291.656C317.198 292.469 317.188 293.281 317.179 294.117C317.227 299.915 318.265 303.95 322.19 308.477C326.112 310.324 330.021 310.047 334.308 310.018C335.252 310.021 336.195 310.024 337.167 310.027C339.16 310.029 341.153 310.024 343.147 310.011C346.191 309.995 349.235 310.011 352.281 310.03C354.219 310.028 356.158 310.024 358.096 310.018C359.004 310.025 359.913 310.031 360.849 310.037C365.689 309.983 369.062 309.808 372.951 306.636C375.091 303.462 374.68 298.18 374.912 297.913C375.18 297.604 377.249 297.282 378.063 297.205C385.292 296.311 390.384 295.372 395.103 289.712C398.877 284.535 398.939 278.949 398.123 272.788C396.445 267.934 393.366 264.64 389.061 261.838C385.109 259.954 381.942 259.595 377.572 259.589C376.289 259.583 375.005 259.577 373.683 259.57C372.292 259.574 370.901 259.578 369.51 259.582C368.077 259.581 366.644 259.579 365.211 259.577C362.216 259.574 359.221 259.578 356.226 259.587C352.383 259.599 348.54 259.592 344.697 259.58C341.742 259.573 338.787 259.575 335.833 259.58C334.415 259.582 332.997 259.58 331.58 259.575C329.603 259.57 327.628 259.579 325.651 259.589C324.525 259.591 323.401 259.592 322.242 259.594C319.429 259.581 319.429 259.581 317.573 261.838ZM304.483 318.582C305.478 323.498 306.231 324.992 309.518 328.537C312.489 330.005 315.496 329.671 318.753 329.661C319.496 329.663 320.24 329.665 321.005 329.667C323.469 329.671 325.933 329.668 328.397 329.665C330.105 329.665 331.813 329.666 333.521 329.668C337.102 329.669 340.685 329.667 344.267 329.662C348.865 329.657 353.463 329.66 358.062 329.666C361.589 329.67 365.117 329.668 368.644 329.666C370.339 329.665 372.036 329.666 373.732 329.668C376.099 329.671 378.466 329.667 380.833 329.661C381.538 329.663 382.244 329.665 382.97 329.668C386.643 329.695 390.068 328.537 390.068 328.537L391.178 327.44L392.082 326.546C392.082 326.546 395.103 322.164 395.103 318.582C365.198 318.582 335.294 318.582 304.483 318.582Z" fill="#FE851B"/>
<path d="M236.631 272.808H253.535V298.864H236.631V272.808Z" fill="#FE851B"/>
<path d="M391.729 278.036C391.729 285.394 385.011 291.356 376.729 291.358C372.331 291.358 372.331 288.939 372.331 288.939V268.18C372.331 268.18 371.897 264.713 376.729 264.713C385.013 264.713 391.729 270.678 391.729 278.036Z" fill="#FE851B"/>
<path d="M64.2489 181.481C74.9238 175.67 74.9697 175.889 83.4582 168.347C84.8126 167.732 84.8102 167.734 85.9953 168.347C87.9156 169.559 98.9474 184.508 129.394 184.508C159.84 184.508 166.032 168.206 171.053 168.206C176.075 168.206 186.023 184.508 213.672 184.508C241.321 184.508 250.168 168.206 257.318 168.206C264.467 168.206 278.832 184.508 300.468 184.508C322.104 184.508 331.827 174.794 342.559 168.206C344.109 167.254 344.144 167.237 345.614 168.206C353.79 175.696 354.479 176.096 365.421 181.178C365.421 183.861 365.459 211.092 365.459 211.092H261.469V221.998H127.435V341.726L208.475 341.472V221.998H223.804L222.541 341.472H262.456V370.225L63.4214 373.888C63.4214 373.888 64.2489 183.714 64.2489 181.481Z" fill="#FE851B"/>
<path d="M183.959 26.0275H243.027L257.798 126.402L243.027 165.662H183.959C183.959 165.662 165.305 155.267 168.887 124.965C172.47 94.6635 183.959 26.0275 183.959 26.0275Z" fill="#FE851B"/>
<path d="M258.493 134.815C258.493 159.556 238.346 179.613 213.493 179.613C188.64 179.613 168.493 159.556 168.493 134.815C168.493 110.074 188.64 90.017 213.493 90.017C238.346 90.017 258.493 110.074 258.493 134.815Z" fill="#FE851B"/>
<path d="M431.981 131.858C431.981 156.599 411.834 176.655 386.981 176.655C362.128 176.655 341.981 156.599 341.981 131.858C341.981 107.117 362.128 87.0599 386.981 87.0599C411.834 87.0599 431.981 107.117 431.981 131.858Z" fill="#FE851B"/>
<path d="M424.432 107.012L343.289 127.934C343.289 127.934 343.438 125.914 341.648 118.787C339.857 111.659 300.62 26.0275 300.62 26.0275L369.56 26.0275L424.432 107.012Z" fill="#FE851B"/>
<path d="M0.956085 132.2C0.956085 156.941 21.1033 176.998 45.9561 176.998C70.8089 176.998 90.9561 156.941 90.9561 132.2C90.9561 107.459 70.8089 87.4021 45.9561 87.4021C21.1033 87.4021 0.956085 107.459 0.956085 132.2Z" fill="#FE851B"/>
<path d="M9.13449 107.355L90.2772 128.276C90.2772 128.276 90.1285 126.256 91.9187 119.129C93.7089 112.001 132.946 26.3696 132.946 26.3696L64.006 26.3696L9.13449 107.355Z" fill="#FE851B"/>
<path d="M64.1497 0H369.692V13.1826V26.3653H64.1497V0Z" fill="#FE851B"/>
</svg>
